<svg width="78" height="22" viewBox="0 0 78 22" fill="none" xmlns="http://www.w3.org/2000/svg">
<g id="Brand">
<path d="M0.213623 20.8061H9.10297C13.7762 20.8061 16.2652 18.3679 16.2652 15.056C16.2652 11.9778 14.0607 10.1186 11.6936 10.0069V9.80368C13.8575 9.31603 15.4525 7.78199 15.4525 5.33361C15.4525 2.21472 13.1362 0 8.54421 0H0.213623V20.8061ZM4.61258 17.2098V11.6831H8.30039C10.4135 11.6831 11.7241 12.9022 11.7241 14.6192C11.7241 16.1837 10.6573 17.2098 8.19879 17.2098H4.61258ZM4.61258 8.70648V3.55574H7.95497C9.90555 3.55574 11.0129 4.5615 11.0129 6.06507C11.0129 7.71087 9.67188 8.70648 7.8737 8.70648H4.61258Z" fill="#8CB7F5"/>
<path d="M18.5182 20.8061H22.846V11.9778C22.846 10.0577 24.248 8.73696 26.1579 8.73696C26.7573 8.73696 27.5802 8.83855 27.9866 8.97062V5.13042C27.6005 5.03899 27.0621 4.97803 26.6253 4.97803C24.8779 4.97803 23.4454 5.99396 22.8765 7.92422H22.7139V5.20154H18.5182V20.8061Z" fill="#8CB7F5"/>
<path d="M33.6988 21.1008C36.0049 21.1008 37.4983 20.095 38.2603 18.6422H38.3822V20.8061H42.4865V10.2812C42.4865 6.56288 39.3371 4.99835 35.8627 4.99835C32.1241 4.99835 29.6655 6.78638 29.0661 9.63097L33.0689 9.95607C33.3635 8.91982 34.288 8.15788 35.8424 8.15788C37.3155 8.15788 38.1587 8.8995 38.1587 10.1796V10.2405C38.1587 11.2463 37.092 11.3784 34.3794 11.6425C31.291 11.927 28.5175 12.9632 28.5175 16.4478C28.5175 19.5362 30.7221 21.1008 33.6988 21.1008ZM34.9382 18.1139C33.6073 18.1139 32.6524 17.4942 32.6524 16.3056C32.6524 15.0865 33.6581 14.4871 35.182 14.2737C36.1268 14.1417 37.671 13.9182 38.1891 13.5728V15.2287C38.1891 16.8644 36.838 18.1139 34.9382 18.1139Z" fill="#8CB7F5"/>
<path d="M49.6438 11.7847C49.654 9.7732 50.8528 8.59473 52.6002 8.59473C54.3374 8.59473 55.3838 9.73256 55.3736 11.6425V20.8061H59.7015V10.8704C59.7015 7.23339 57.568 4.99835 54.3171 4.99835C52.0008 4.99835 50.3245 6.13619 49.6235 7.95469H49.4406V5.20154H45.316V20.8061H49.6438V11.7847Z" fill="#8CB7F5"/>
<path d="M68.3344 21.0601C70.8539 21.0601 72.1645 19.6074 72.7639 18.307H72.9467V20.8061H77.2136V0H72.8959V7.82262H72.7639C72.1848 6.55272 70.9352 4.99835 68.3243 4.99835C64.9006 4.99835 62.0052 7.66008 62.0052 13.0242C62.0052 18.246 64.7787 21.0601 68.3344 21.0601ZM69.7059 17.6161C67.5826 17.6161 66.4245 15.7265 66.4245 13.0038C66.4245 10.3015 67.5623 8.44234 69.7059 8.44234C71.8089 8.44234 72.9874 10.2202 72.9874 13.0038C72.9874 15.7875 71.7886 17.6161 69.7059 17.6161Z" fill="#8CB7F5"/>
</g>
</svg>
